<svg width="120" height="40" viewBox="0 0 120 40" fill="none" xmlns="http://www.w3.org/2000/svg">
  <!-- Logo Container -->
  <g>
    <!-- Vessel Shape -->
    <path d="M20 8C20 8 16 12 16 20C16 28 20 32 24 32C28 32 32 28 32 20C32 12 28 8 24 8C20 8 20 8 20 8Z" fill="url(#vesselGradient)"/>
    <!-- Cultural Pattern Inside -->
    <path d="M22 12C22 12 20 14 20 18C20 22 22 24 24 24C26 24 28 22 28 18C28 14 26 12 24 12C22 12 22 12 22 12Z" fill="white" fill-opacity="0.3"/>
    <!-- Artistic Elements -->
    <circle cx="18" cy="16" r="1" fill="white"/>
    <circle cx="30" cy="16" r="1" fill="white"/>
    <path d="M24 14L24 22" stroke="white" stroke-width="0.5"/>
  </g>
  
  <!-- Text -->
  <g>
    <text x="45" y="18" font-family="Arial, sans-serif" font-size="14" font-weight="bold" fill="#1e293b">House of Vessels</text>
    <text x="45" y="30" font-family="Arial, sans-serif" font-size="8" fill="#d97706">Worldwide</text>
  </g>
  
  <!-- Gradient Definition -->
  <defs>
    <linearGradient id="vesselGradient" x1="0%" y1="0%" x2="0%" y2="100%">
      <stop offset="0%" stop-color="#d97706"/>
      <stop offset="50%" stop-color="#ea580c"/>
      <stop offset="100%" stop-color="#dc2626"/>
    </linearGradient>
  </defs>
</svg>